M48
; DRILL file {KiCad (6.0.0-0)} date Tuesday, May 31, 2022 at 10:47:52 PM
; FORMAT={-:-/ absolute / inch / decimal}
; #@! TF.CreationDate,2022-05-31T22:47:52-04:00
; #@! TF.GenerationSoftware,Kicad,Pcbnew,(6.0.0-0)
; #@! TF.FileFunction,Plated,1,2,PTH
FMAT,2
INCH
; #@! TA.AperFunction,Plated,PTH,ViaDrill
T1C0.0157
; #@! TA.AperFunction,Plated,PTH,ComponentDrill
T2C0.0320
; #@! TA.AperFunction,Plated,PTH,ComponentDrill
T3C0.0354
; #@! TA.AperFunction,Plated,PTH,ComponentDrill
T4C0.0394
; #@! TA.AperFunction,Plated,PTH,ComponentDrill
T5C0.0433
; #@! TA.AperFunction,Plated,PTH,ComponentDrill
T6C0.0472
%
G90
G05
T1
X3.0Y-3.9
X3.0152Y-4.0618
X3.0252Y-3.0318
X3.0252Y-3.0918
X3.0252Y-3.3618
X3.0452Y-4.1618
X3.0752Y-3.3618
X3.1152Y-2.6218
X3.1452Y-3.5518
X3.2752Y-3.2818
X3.2752Y-3.5518
X3.2852Y-3.0318
X3.2852Y-3.0818
X3.2852Y-3.1539
X3.3646Y-3.5518
X3.3654Y-3.032
X3.8055Y-4.6894
X3.9276Y-3.7602
X4.0496Y-5.0673
T2
X3.6319Y-2.9465
X3.6319Y-3.0252
X3.6319Y-3.104
X3.6319Y-3.1827
X3.6319Y-3.2615
X3.6319Y-3.3402
X3.6319Y-3.4189
X3.6319Y-3.4977
X3.6319Y-3.5764
X3.6319Y-3.6552
X4.4981Y-2.9465
X4.4981Y-3.0252
X4.4981Y-3.104
X4.4981Y-3.1827
X4.4981Y-3.2615
X4.4981Y-3.3402
X4.4981Y-3.4189
X4.4981Y-3.4977
X4.4981Y-3.5764
X4.4981Y-3.6552
T3
X3.5929Y-2.6303
X3.6629Y-2.6903
X3.7229Y-2.6303
X3.7829Y-2.6903
T4
X2.9245Y-4.1374
X2.9245Y-4.2374
X2.9245Y-4.3374
X2.9245Y-4.4374
X2.9245Y-4.5374
X2.9245Y-4.6374
X2.9245Y-4.7374
X2.9245Y-4.8374
X2.9245Y-4.9374
X3.2008Y-5.3
X3.5Y-5.3
T5
X2.8953Y-2.5768
X2.8953Y-2.6768
X2.8953Y-2.7768
X2.8953Y-2.8768
X2.8953Y-2.9768
X2.8953Y-3.0768
X2.8953Y-3.1768
X2.8953Y-3.2768
X2.8953Y-3.3768
X2.8953Y-3.4768
X2.8953Y-3.5768
X2.8953Y-3.6768
X2.8953Y-3.7768
X2.8953Y-3.8768
X3.4953Y-2.5768
X3.4953Y-2.6768
X3.4953Y-2.7768
X3.4953Y-2.8768
X3.4953Y-2.9768
X3.4953Y-3.0768
X3.4953Y-3.1768
X3.4953Y-3.2768
X3.4953Y-3.3768
X3.4953Y-3.4768
X3.4953Y-3.5768
X3.4953Y-3.6768
X3.4953Y-3.7768
X3.4953Y-3.8768
X3.7886Y-4.1618
X3.7886Y-4.2618
X3.7886Y-4.3618
X4.2Y-4.2598
X4.2Y-4.35
X4.2Y-4.4402
X4.2Y-4.5598
X4.2Y-4.65
X4.2Y-4.7402
T6
X4.3996Y-4.1437
X4.3996Y-4.2815
X4.3996Y-4.4193
X4.3996Y-4.5571
X4.3996Y-4.6949
X4.3996Y-4.8327
T0
M30
